<svg width="48" height="76" viewBox="0 0 48 76" fill="none" xmlns="http://www.w3.org/2000/svg">
<path d="M7.47591 75.7616C6.31615 75.7616 5.20389 75.2997 4.38381 74.4774C3.56374 73.6551 3.10303 72.5399 3.10303 71.377V5.39585C3.10303 4.23297 3.56374 3.11773 4.38381 2.29545C5.20389 1.47318 6.31615 1.01123 7.47591 1.01123C8.63567 1.01123 9.74793 1.47318 10.568 2.29545C11.3881 3.11773 11.8488 4.23297 11.8488 5.39585V71.377C11.8488 72.5399 11.3881 73.6551 10.568 74.4774C9.74793 75.2997 8.63567 75.7616 7.47591 75.7616Z" fill="#CEDC21"/>
<path d="M7.48327 75.7613C6.49143 75.7591 5.52981 75.4188 4.75625 74.7964C3.98269 74.1739 3.44316 73.3063 3.2262 72.3358C3.00924 71.3654 3.12776 70.3498 3.56228 69.4559C3.99681 68.5619 4.72154 67.8425 5.61751 67.416L31.986 54.8687L4.8887 34.8602C4.40692 34.5267 3.99683 34.0997 3.68273 33.6043C3.36863 33.109 3.15692 32.5555 3.06015 31.9766C2.96339 31.3977 2.98353 30.8052 3.1194 30.2342C3.25526 29.6633 3.50408 29.1255 3.85109 28.6527C4.19811 28.18 4.63626 27.7819 5.13957 27.4821C5.64287 27.1824 6.20108 26.987 6.78111 26.9075C7.36114 26.8281 7.95117 26.8662 8.51621 27.0197C9.08126 27.1732 9.60982 27.4389 10.0706 27.801L43.0421 52.1575C43.6503 52.608 44.1316 53.209 44.439 53.9017C44.7464 54.5945 44.8694 55.3553 44.796 56.1099C44.7226 56.8645 44.4552 57.5872 44.0201 58.2073C43.5849 58.8274 42.9969 59.3237 42.3133 59.6479L9.35632 75.3375C8.77182 75.6185 8.13151 75.7634 7.48327 75.7613Z" fill="#51B13E"/>
<path d="M7.48325 49.8266C6.5623 49.8267 5.66485 49.5352 4.91885 48.9937C4.17285 48.4522 3.61638 47.6884 3.32879 46.8112C3.0412 45.934 3.03717 44.9881 3.31727 44.1084C3.59737 43.2287 4.14731 42.4602 4.88867 41.9124L31.9714 21.882L5.61748 9.3566C5.09778 9.11045 4.63152 8.76406 4.24533 8.33723C3.85913 7.9104 3.56057 7.41149 3.36667 6.86896C3.17278 6.32643 3.08736 5.75093 3.11528 5.1753C3.14321 4.59967 3.28394 4.03519 3.52943 3.5141C3.77492 2.993 4.12038 2.52549 4.54607 2.13826C4.97175 1.75103 5.46934 1.45166 6.01041 1.25725C6.55149 1.06284 7.12545 0.977182 7.69954 1.00518C8.27363 1.03318 8.8366 1.17429 9.3563 1.42044L42.3278 17.1101C43.0114 17.4342 43.5995 17.9306 44.0346 18.5507C44.4698 19.1708 44.7371 19.8934 44.8105 20.648C44.884 21.4027 44.761 22.1635 44.4536 22.8562C44.1462 23.549 43.6649 24.1499 43.0566 24.6004L10.0705 48.9716C9.3209 49.5256 8.41447 49.8251 7.48325 49.8266Z" fill="#CEDC21"/>
<path d="M11.8489 29.1089V47.6558L24.3918 38.3897L11.8489 29.1089Z" fill="#1E7A44"/>
<path d="M11.8488 21.3335H3.10303V42.7085H11.8488V21.3335Z" fill="black"/>
<path d="M11.8488 5.39585C11.8488 4.23297 11.3881 3.11773 10.568 2.29545C9.74793 1.47318 8.63567 1.01123 7.47591 1.01123C6.31615 1.01123 5.20389 1.47318 4.38381 2.29545C3.56374 3.11773 3.10303 4.23297 3.10303 5.39585V60.6128H11.8488V5.39585Z" fill="#CEDC21"/>
</svg>
