<svg width="24" height="24" viewBox="0 0 24 24" fill="none" xmlns="http://www.w3.org/2000/svg">
<path d="M12 20.5C7.30364 20.5 3.5 16.6964 3.5 12C3.5 7.30364 7.30364 3.5 12 3.5C16.6964 3.5 20.5 7.30364 20.5 12C20.5 16.6964 16.6964 20.5 12 20.5Z" stroke="#0D0D0D"/>
<path d="M4.5 12C4.5 16.1436 7.85636 19.5 12 19.5C16.1436 19.5 19.5 16.1436 19.5 12C19.5 7.85636 16.1436 4.5 12 4.5C7.85636 4.5 4.5 7.85636 4.5 12Z" fill="#FFC239" stroke="#FFC239"/>
<path d="M12 12.25V12.5347L12.2449 12.68L16.3096 15.0918L16.0816 15.4658L11.5 12.7169V7.5H12V12.25Z" stroke="#0D0D0D"/>
</svg>
