<svg width="795" height="795" viewBox="0 0 795 795" fill="none" xmlns="http://www.w3.org/2000/svg">
<g filter="url(#filter0_d_143_3)">
<path fill-rule="evenodd" clip-rule="evenodd" d="M120.412 17C66.6127 17 23 60.6127 23 114.412V668.588C23 722.387 66.6127 766 120.412 766H674.588C728.387 766 772 722.387 772 668.588V114.412C772 60.6127 728.387 17 674.588 17H120.412ZM133.085 289.922L199.803 375.153H226.723C223.799 385.781 222.267 396.787 222.127 408.168H201.954L195.47 453.536L190.839 504.631H189.681L180.881 453.756L173.935 408.168H147.768L140.589 453.756L132.022 504.631H130.864L126.001 453.536L119.517 408.168H88.4878L110.949 562.332H143.368L160.041 471.375H160.967L177.176 562.332H210.522L227.158 448.152C231.737 464.084 239.438 478.039 250.259 490.017C270.882 512.788 299.383 524.174 335.76 524.174C370.991 524.174 399.277 512.573 420.616 489.372C421.345 488.582 422.06 487.784 422.762 486.979V562.332H456.108V506.172H469.2L490.196 562.332H524.778L499.829 499.125C517.285 489.875 526.013 475.413 526.013 455.739C526.013 443.699 522.308 433.568 514.897 425.346C507.652 416.977 498.841 411.251 488.467 408.168H450.898C450.904 407.597 450.907 407.024 450.907 406.449C450.907 395.389 449.829 385.012 447.673 375.321L494.091 375.342C514.005 375.351 512.673 291.718 491.338 291.708C470.002 291.699 457.392 275.687 453.924 265.854L478.342 250.72L498.555 246.995L498.553 243.058L477.485 238.47C475.098 238.258 473.009 233.819 470.996 229.541C469.13 225.575 467.329 221.748 465.416 221.556C456.393 221.552 448.696 221.397 442.155 221.265H442.155C411.907 220.654 406.401 220.543 408.929 238.191C409.378 241.327 409.268 245.244 409.124 250.384V250.385C409.037 253.469 408.938 256.992 408.94 261.05C409.302 262.555 409.429 264.63 409.575 267.032C410.271 278.436 411.417 297.208 440.361 297.221C475.403 297.237 489.968 346.285 468.848 344.409C454.757 343.157 444.565 342.633 434.876 342.746C431.082 336.413 426.616 330.508 421.476 325.03C400.995 303.118 373.354 292.162 338.553 292.162C303.608 292.162 275.179 303.762 253.267 326.964C244.915 335.911 238.154 346.151 232.983 357.683V220.989H188.029V281.994L191.954 309.082L190.17 309.523L124.522 220.989H88.4878V375.153H133.442V316.35L131.301 290.362L133.085 289.922ZM508.775 247.417H542.03V375.153H571.982V247.417H605.238V220.989H508.775V247.417ZM634.266 220.989H692.848C702.098 224.072 709.953 229.798 716.413 238.167C723.02 246.389 726.324 256.52 726.324 268.559C726.324 288.234 718.542 302.696 702.979 311.945L726.324 375.153H694.39L675.67 318.993H663.998V375.153H634.266V220.989ZM663.998 247.417V294.327H682.938C685.434 293.739 688.15 291.243 691.086 286.839C694.17 282.287 695.711 277.002 695.711 270.982C695.711 264.962 694.39 259.676 691.747 255.125C689.251 250.573 686.755 248.004 684.259 247.417H663.998ZM541.546 408.168V562.332H617.527V536.785H571.718V408.168H541.546ZM663.307 536.785H682.525C686.511 531.646 689.643 524.158 691.921 514.321C694.341 504.484 695.551 494.72 695.551 485.03C695.551 461.979 691.352 445.167 682.952 434.596H663.307V536.785ZM634.266 562.332V408.168H696.192C716.406 426.668 726.514 451.774 726.514 483.488C726.514 515.055 717.047 541.336 698.114 562.332H634.266ZM456.108 481.506V434.596H478.833C481.633 435.183 484.432 437.753 487.232 442.304C490.196 446.856 491.678 452.141 491.678 458.161C491.678 464.181 489.949 469.466 486.491 474.018C483.197 478.423 480.151 480.919 477.351 481.506H456.108ZM278.831 434.806C275.823 426.357 274.32 417.62 274.32 408.598C274.32 390.122 279.332 374.44 289.357 361.551C300.385 347.515 315.638 340.498 335.115 340.498C354.307 340.498 369.416 347.086 380.444 360.262C390.755 372.578 395.911 388.762 395.911 408.812C395.911 428.576 390.899 444.617 380.873 456.933C370.562 469.68 356.455 476.053 338.553 476.053C319.218 476.053 303.608 469.537 291.721 456.504C286.135 450.489 281.839 443.256 278.831 434.806Z" fill="white"/>
</g>
<defs>
<filter id="filter0_d_143_3" x="0.520382" y="0.514946" width="793.959" height="793.959" filterUnits="userSpaceOnUse" color-interpolation-filters="sRGB">
<feFlood flood-opacity="0" result="BackgroundImageFix"/>
<feColorMatrix in="SourceAlpha" type="matrix" values="0 0 0 0 0 0 0 0 0 0 0 0 0 0 0 0 0 0 127 0" result="hardAlpha"/>
<feOffset dy="5.99456"/>
<feGaussianBlur stdDeviation="11.2398"/>
<feComposite in2="hardAlpha" operator="out"/>
<feColorMatrix type="matrix" values="0 0 0 0 0 0 0 0 0 0 0 0 0 0 0 0 0 0 0.55 0"/>
<feBlend mode="normal" in2="BackgroundImageFix" result="effect1_dropShadow_143_3"/>
<feBlend mode="normal" in="SourceGraphic" in2="effect1_dropShadow_143_3" result="shape"/>
</filter>
</defs>
</svg>
