<svg width="24" height="24" viewBox="0 0 24 24" fill="none" xmlns="http://www.w3.org/2000/svg">
<path d="M14.9485 8.45623C14.9948 8.72847 15.253 8.91166 15.5252 8.8654C15.7974 8.81914 15.9806 8.56094 15.9344 8.2887L15.5156 5.82404L19.952 5.07016C20.2242 5.0239 20.4824 5.20709 20.5287 5.47933L20.7249 6.63435C20.7916 7.02655 20.6997 7.42916 20.4695 7.75362L19.6512 8.90701C18.8522 10.0331 19.1174 11.5936 20.2435 12.3926L21.3968 13.2109C21.7213 13.4411 21.941 13.7908 22.0077 14.183L22.2039 15.338C22.2502 15.6102 22.067 15.8684 21.7948 15.9147L17.3584 16.6686L16.9395 14.2039C16.8933 13.9317 16.6351 13.7485 16.3628 13.7947C16.0906 13.841 15.9074 14.0992 15.9537 14.3714L16.3725 16.8361L4.04916 18.9302C3.77692 18.9765 3.51872 18.7933 3.47246 18.521L3.27619 17.366C3.20954 16.9738 3.30142 16.5712 3.53163 16.2467L4.34997 15.0933C5.14892 13.9673 4.88374 12.4067 3.75767 11.6078L2.60427 10.7894C2.27982 10.5592 2.0601 10.2096 1.99345 9.81737L1.79718 8.66236C1.75092 8.39012 1.93411 8.13192 2.20635 8.08566L14.5297 5.99156L14.9485 8.45623ZM15.7024 12.8926C15.7486 13.1649 16.0068 13.3481 16.2791 13.3018C16.5513 13.2555 16.7345 12.9973 16.6883 12.7251L16.1857 9.7675C16.1394 9.49526 15.8812 9.31207 15.609 9.35834C15.3367 9.4046 15.1535 9.66279 15.1998 9.93503L15.7024 12.8926ZM6.91056 9.50831C6.63887 9.55771 6.45867 9.818 6.50807 10.0897C6.55746 10.3614 6.81775 10.5416 7.08944 10.4922L12.5894 9.49218C12.8611 9.44278 13.0413 9.18249 12.9919 8.9108C12.9425 8.63911 12.6822 8.45891 12.4106 8.50831L6.91056 9.50831ZM7.40194 11.51C7.13116 11.5641 6.95555 11.8275 7.00971 12.0983C7.06387 12.3691 7.32728 12.5447 7.59806 12.4905L10.0981 11.9905C10.3688 11.9364 10.5444 11.673 10.4903 11.4022C10.4361 11.1314 10.1727 10.9558 9.90194 11.01L7.40194 11.51Z" fill="#FFC239" stroke="#0D0D0D" stroke-linecap="round"/>
</svg>
